<svg xmlns="http://www.w3.org/2000/svg" width="100" height="100" viewBox="0 0 100 100">
    <defs>
        <style>
            .cls-1{fill:#fff}
        </style>
    </defs>
    <g id="btn_play" transform="translate(6696.52 -239.792)">
        <path id="패스_1725" d="M-6646.52 239.792a50 50 0 0 0-50 50 50 50 0 0 0 50 50 50 50 0 0 0 50-50 50 50 0 0 0-50-50zm0 96a46.053 46.053 0 0 1-46-46 46.052 46.052 0 0 1 46-46 46.052 46.052 0 0 1 46 46 46.053 46.053 0 0 1-46 46z" class="cls-1"/>
        <path id="패스_1726" d="M-6629.474 288.16l-24.256-13.644a1.872 1.872 0 0 0-2.79 1.631v27.289a1.872 1.872 0 0 0 2.79 1.631l24.256-13.644a1.872 1.872 0 0 0 0-3.263z" class="cls-1"/>
    </g>
</svg>
