<svg xmlns="http://www.w3.org/2000/svg" width="144.498" height="144" viewBox="0 0 144.498 144">
    <defs>
        <style>
            .cls-2{fill:none}.cls-4{fill:#191919}.cls-5{fill:#5865f5}
        </style>
    </defs>
    <g id="ic_404" transform="translate(-260 -658)">
        <path id="bg" fill="rgba(160,160,160,0)" d="M0 0H144V144H0z" transform="translate(260 658)"/>
        <g id="그룹_3987" transform="translate(264.499 674.501)">
            <path id="패스_307" d="M342.841 424.24v-55.5h-109.5v61.5h92.554a26.868 26.868 0 0 1 16.946-6zM275.7 406.974h-2.5v4.768h-4.672v-4.768h-10.56v-4.512l8.732-13.568h6.5v14.336h2.5zm10.3 5.152c-5.764 0-8.64-4.32-8.64-11.68s2.88-11.936 8.64-11.936c5.728 0 8.672 4.576 8.672 11.936s-2.94 11.68-8.672 11.68zm25.888-5.152v4.768h-4.668v-4.768h-10.56v-4.512l8.732-13.568h6.5v14.336h2.5v3.744z" class="cls-2" transform="translate(-230.341 -365.741)"/>
            <path id="패스_308" d="M300.92 403.23h6.3v-10.144h-.064z" class="cls-2" transform="translate(-230.341 -365.741)"/>
            <path id="패스_309" d="M305.2 469.241l-7.361-16.5h-20.995l-7.361 16.5z" class="cls-2" transform="translate(-230.341 -365.741)"/>
            <path id="패스_310" d="M233.341 433.241v16.5h82.544a26.892 26.892 0 0 1 6.852-16.5z" class="cls-2" transform="translate(-230.341 -365.741)"/>
            <path id="패스_311" d="M342.841 430.241v-3a23.851 23.851 0 0 0-11.6 3z" class="cls-2" transform="translate(-230.341 -365.741)"/>
            <path id="패스_312" d="M286 392.254c-2.88 0-4 3.392-4 8.192s1.12 7.936 4 7.936 4.036-3.14 4.036-7.94-1.152-8.188-4.036-8.188z" class="cls-2" transform="translate(-230.341 -365.741)"/>
            <path id="패스_313" d="M262.232 403.23h6.3v-10.144h-.064z" class="cls-2" transform="translate(-230.341 -365.741)"/>
            <path id="합치기_30" fill="#191919" stroke="rgba(0,0,0,0)" stroke-miterlimit="10" d="M9171.5 10651.829h3.007a24 24 0 1 0 26.949-25.307v-3.022a27 27 0 1 1-29.956 28.329zm26.955.622l-6.954 6.951-2.119-2.12 5.453-5.453 1.5-1.5 1.5-1.5h.619v-.622l3-3 3.952-3.955 2.122 2.122-6.074 6.075v.879a1.479 1.479 0 0 1-.18.7l-.7-.7.879-.879-.881.877.7.7a1.494 1.494 0 0 1-1.318.8 1.5 1.5 0 0 0 1.321-.8l6.254 6.254-2.122 2.12zm-3.62-3.623h3l-1.5 1.5zm3 0l.619-.619v.619zm-3 0l-5.453-5.453 2.119-2.122 6.954 6.953-.619.622zm3.62-.622z" transform="translate(-9085.957 -10564.829)"/>
            <path id="패스_315" d="M315.885 449.74h-82.544v-16.5h-3v18a1.5 1.5 0 0 0 1.5 1.5h41.718l.941-2.11 2.74 1.223-.4.887h20.992l-.4-.887 2.74-1.223.941 2.11h14.764c-.028-.5-.044-1-.044-1.5s.024-1.003.052-1.5z" class="cls-4" transform="translate(-230.341 -365.741)"/>
            <path id="패스_316" d="M233.341 368.741h109.5v55.5a27 27 0 0 1 3 .171v-57.17a1.5 1.5 0 0 0-1.5-1.5h-112.5a1.5 1.5 0 0 0-1.5 1.5v63h3z" class="cls-4" transform="translate(-230.341 -365.741)"/>
            <path id="패스_317" d="M325.895 430.241h-92.554v3h89.4a27.3 27.3 0 0 1 3.154-3z" class="cls-4" transform="translate(-230.341 -365.741)"/>
            <path id="사각형_659" d="M0 0H3V3H0z" class="cls-4" transform="translate(0 64.5)"/>
            <path id="패스_318" d="M305.2 469.241h-35.717l-.273.611-1.37-.611h-15v3h69v-3h-15l-1.37.611z" class="cls-4" transform="translate(-230.341 -365.741)"/>
            <path id="패스_319" d="M276.844 452.74h-3.285l-7.088 15.89 1.37.611h1.643z" class="cls-4" transform="translate(-230.341 -365.741)"/>
            <path id="패스_320" d="M277.24 451.852l-2.74-1.223-.941 2.11h3.285z" class="cls-4" transform="translate(-230.341 -365.741)"/>
            <path id="패스_321" d="M269.483 469.241h-1.643l1.37.611z" class="cls-4" transform="translate(-230.341 -365.741)"/>
            <path id="패스_322" d="M305.2 469.241h1.643l1.37-.611-7.089-15.89h-3.285z" class="cls-4" transform="translate(-230.341 -365.741)"/>
            <path id="패스_323" d="M297.44 451.852l.4.888h3.285l-.942-2.11z" class="cls-4" transform="translate(-230.341 -365.741)"/>
            <path id="패스_324" d="M305.47 469.853l1.37-.611h-1.64z" class="cls-4" transform="translate(-230.341 -365.741)"/>
            <path id="패스_325" d="M326.991 433.241h-4.254a26.891 26.891 0 0 0-6.852 16.5h3.007a23.953 23.953 0 0 1 8.099-16.5z" class="cls-4" transform="translate(-230.341 -365.741)"/>
            <path id="패스_327" d="M331.237 430.241a23.849 23.849 0 0 1 11.6-3v-3a26.868 26.868 0 0 0-16.946 6z" class="cls-4" transform="translate(-230.341 -365.741)"/>
            <path id="패스_328" d="M342.841 427.24a24.15 24.15 0 0 1 3 .194v-3.023a27 27 0 0 0-3-.171z" class="cls-4" transform="translate(-230.341 -365.741)"/>
            <path id="패스_329" d="M318.841 451.24c0-.5.021-1 .051-1.5h-3.007c-.028.5-.044 1-.044 1.5s.016 1 .044 1.5h3.007c-.03-.496-.051-.996-.051-1.5z" class="cls-4" transform="translate(-230.341 -365.741)"/>
            <path id="패스_330" d="M325.895 430.241a27.307 27.307 0 0 0-3.158 3h4.254a24.118 24.118 0 0 1 4.246-3z" class="cls-4" transform="translate(-230.341 -365.741)"/>
            <path id="패스_343" d="M311.892 403.23v-14.336h-6.5l-8.732 13.568v4.512h10.56v4.768h4.672v-4.768h2.5v-3.744zm-4.672 0h-6.3l6.24-10.144h.064z" class="cls-5" transform="translate(-230.341 -365.741)"/>
            <path id="패스_344" d="M273.2 388.894h-6.5l-8.732 13.568v4.512h10.56v4.768h4.672v-4.768h2.5v-3.744h-2.5zm-4.672 14.336h-6.3l6.24-10.144h.064z" class="cls-5" transform="translate(-230.341 -365.741)"/>
            <path id="패스_345" d="M286 388.51c-5.76 0-8.64 4.576-8.64 11.936s2.876 11.68 8.64 11.68c5.728 0 8.672-4.32 8.672-11.68s-2.94-11.936-8.672-11.936zm0 19.872c-2.88 0-4-3.136-4-7.936s1.12-8.192 4-8.192 4.036 3.388 4.036 8.188-1.152 7.94-4.036 7.94z" class="cls-5" transform="translate(-230.341 -365.741)"/>
        </g>
    </g>
</svg>
