<svg xmlns="http://www.w3.org/2000/svg" width="24" height="24" viewBox="0 0 24 24">
    <g>
        <path fill="#666" d="M697.418 114.516a4.044 4.044 0 1 0-4.045-4.045 4 4 0 0 0 .133.978l-7.23 3.615a4.045 4.045 0 1 0-.068 5.161l3.892 2.075a5.164 5.164 0 0 0-.29 1.645 5.293 5.293 0 1 0 1.113-3.189l-3.886-2.073a3.639 3.639 0 0 0 .031-2.055l7.231-3.615a4.019 4.019 0 0 0 3.119 1.503zm-2.378 5.943a3.507 3.507 0 1 1-2.552 1.131 3.487 3.487 0 0 1 2.552-1.131zm-9.592-2.855c0 .075-.015.146-.022.22a2.272 2.272 0 1 1 .006-.382c.004.058.016.106.016.158zm9.675-7.133a2.668 2.668 0 1 1 .016.161c-.004-.054-.016-.106-.016-.161z" transform="translate(-678.482 -105.99)"/>
    </g>
</svg>
