<svg xmlns="http://www.w3.org/2000/svg" width="48" height="48" viewBox="0 0 48 48">
    <defs>
        <style>
            .cls-2{fill:#444}
        </style>
    </defs>
    <g id="ic_bus" transform="translate(992.237 324.14)">
        <g id="그룹_6339" transform="translate(172.572 -57.611)">
            <path id="패스_1992" d="M-1126.181-251.167h-1.411v-4.459a2.906 2.906 0 0 0-2.9-2.9h-20.628a2.906 2.906 0 0 0-2.9 2.9v4.459h-1.411a2.375 2.375 0 0 0-2.372 2.372v4.4h1.573v-4.4a.8.8 0 0 1 .8-.8h1.411v19.258a2.06 2.06 0 0 0 1.42 1.955v1.214a2.06 2.06 0 0 0 2.057 2.057h3.387a2.059 2.059 0 0 0 2.056-2.057v-1.112h8.594v1.112a2.059 2.059 0 0 0 2.056 2.057h3.387a2.06 2.06 0 0 0 2.057-2.057v-1.214a2.06 2.06 0 0 0 1.42-1.955v-19.258h1.411a.8.8 0 0 1 .8.8v4.4h1.573v-4.4a2.375 2.375 0 0 0-2.38-2.372zm-26.272-.783h10.857v11.838h-10.857zm5.774 24.783a.484.484 0 0 1-.483.484h-3.387a.484.484 0 0 1-.484-.484v-1.112h4.354zm16.094 0a.484.484 0 0 1-.484.484h-3.387a.484.484 0 0 1-.483-.484v-1.112h4.354zm1.42-3.169a.484.484 0 0 1-.484.484h-22.32a.484.484 0 0 1-.484-.484v-8.2h23.288zm0-9.776h-10.858v-11.838h10.858zm0-13.411h-23.288v-2.1a1.331 1.331 0 0 1 1.33-1.33h20.628a1.331 1.331 0 0 1 1.33 1.33z" class="cls-2"/>
            <path id="패스_1993" d="M-1148.034-231.717a2.756 2.756 0 0 0 2.753-2.754 2.756 2.756 0 0 0-2.753-2.753 2.756 2.756 0 0 0-2.753 2.753 2.756 2.756 0 0 0 2.753 2.754zm0-3.934a1.182 1.182 0 0 1 1.18 1.18 1.182 1.182 0 0 1-1.18 1.181 1.182 1.182 0 0 1-1.18-1.181 1.181 1.181 0 0 1 1.18-1.18z" class="cls-2"/>
            <path id="패스_1994" d="M-1133.584-231.717a2.756 2.756 0 0 0 2.753-2.754 2.756 2.756 0 0 0-2.753-2.753 2.756 2.756 0 0 0-2.753 2.753 2.756 2.756 0 0 0 2.753 2.754zm0-3.934a1.181 1.181 0 0 1 1.18 1.18 1.182 1.182 0 0 1-1.18 1.181 1.182 1.182 0 0 1-1.18-1.181 1.182 1.182 0 0 1 1.18-1.18z" class="cls-2"/>
        </g>
    </g>
</svg>
