<svg xmlns="http://www.w3.org/2000/svg" width="14" height="14" viewBox="0 0 14 14">
    <g>
        <path fill="#444" d="M-5030.236 2623.075a2.383 2.383 0 0 0 .622-1.6 2.4 2.4 0 0 0-2.4-2.4 2.391 2.391 0 0 0-1.989 1.06 2.391 2.391 0 0 0-1.989-1.06 2.4 2.4 0 0 0-2.4 2.4 2.383 2.383 0 0 0 .622 1.6h-2.826v9.618h13.18v-9.618zm-3.171-1.6a1.4 1.4 0 0 1 1.4-1.4 1.4 1.4 0 0 1 1.4 1.4 1.4 1.4 0 0 1-1.4 1.4h-1.4zm-2.582-1.4a1.4 1.4 0 0 1 1.4 1.4v1.4h-1.4a1.4 1.4 0 0 1-1.4-1.4 1.4 1.4 0 0 1 1.4-1.394zm-3.6 3.994h3.736l-1.887 1.887.707.707 2.534-2.534v7.558h-5.09zm11.18 7.618h-5.09v-7.564l2.54 2.54.707-.707-1.887-1.887h3.73z" transform="translate(5041 -2619)"/>
    </g>
</svg>
