<svg xmlns="http://www.w3.org/2000/svg" width="14" height="14" viewBox="0 0 14 14">
    <g>
        <path fill="#444" d="M-5011.813 2631.522l-3.414-3.412a5.1 5.1 0 0 0 1.211-3.279 5.158 5.158 0 0 0-5.153-5.153 5.159 5.159 0 0 0-5.153 5.153 5.158 5.158 0 0 0 5.153 5.153 5.1 5.1 0 0 0 3.231-1.171l3.417 3.416zm-11.509-6.691a4.158 4.158 0 0 1 4.153-4.153 4.158 4.158 0 0 1 4.153 4.153 4.157 4.157 0 0 1-4.153 4.153 4.157 4.157 0 0 1-4.153-4.153z" transform="translate(5025 -2619)"/>
    </g>
</svg>
