<svg xmlns="http://www.w3.org/2000/svg" width="20" height="20" viewBox="0 0 20 20">
    <g fill="#fff">
        <path d="M694.142 113.094a3.382 3.382 0 1 0-3.212-2.528l-5.936 2.979a3.3 3.3 0 0 0-2.564-1.24 3.333 3.333 0 0 0 0 6.667 3.294 3.294 0 0 0 2.508-1.173l3.193 1.709a4.319 4.319 0 1 0 .676-1.273l-3.191-1.709a3.01 3.01 0 0 0 .025-1.694l5.937-2.979a3.3 3.3 0 0 0 2.564 1.241zm-1.953 4.9a2.883 2.883 0 1 1-2.1.932 2.869 2.869 0 0 1 2.1-.934zm-7.876-2.353c0 .062-.012.12-.018.181a1.877 1.877 0 1 1 0-.315c.005.044.018.086.018.132zm7.944-5.879a1.884 1.884 0 1 1 1.884 1.891 1.895 1.895 0 0 1-1.871-1.759c-.003-.046-.013-.089-.013-.134z" transform="translate(-678.482 -105.99)"/>
    </g>
</svg>
