<svg xmlns="http://www.w3.org/2000/svg" width="48" height="48" viewBox="0 0 48 48">
    <defs>
        <style>
            .cls-2{fill:#444}
        </style>
    </defs>
    <g id="ic_subway" transform="translate(1095.677 324.14)">
        <g id="그룹_6342" transform="translate(173.09 -58.036)">
            <path id="패스_1995" d="M-1244.266-259.1c-9.084 0-13.5 1.818-13.5 5.559v17.76a5.133 5.133 0 0 0 5.127 5.128h2.616l-3.816 4.818a.8.8 0 0 0 .131 1.129.8.8 0 0 0 .5.173.8.8 0 0 0 .63-.305l1.593-2.01a.78.78 0 0 0 .2.029h13.065a.839.839 0 0 0 .181-.022l1.587 2a.8.8 0 0 0 .63.305.806.806 0 0 0 .5-.173.8.8 0 0 0 .131-1.129l-3.816-4.818h2.616a5.133 5.133 0 0 0 5.128-5.128v-17.76c-.002-3.741-4.418-5.556-13.503-5.556zm0 1.606c5.418 0 11.874.684 11.893 3.939h-23.785c.02-3.258 6.475-3.945 11.892-3.945zm-11.893 5.546h11.09v9.209h-11.09zm6.422 23.522l1.764-2.227h7.415l1.764 2.227zm17.365-7.355a3.524 3.524 0 0 1-3.521 3.521h-16.745a3.525 3.525 0 0 1-3.521-3.521v-5.351h23.787zm0-6.958h-11.09v-9.209h11.09z" class="cls-2"/>
            <path id="패스_1996" d="M-1251.645-234.168a2.815 2.815 0 0 0 2.812-2.812 2.816 2.816 0 0 0-2.812-2.812 2.815 2.815 0 0 0-2.812 2.812 2.815 2.815 0 0 0 2.812 2.812zm0-4.017a1.206 1.206 0 0 1 1.205 1.205 1.207 1.207 0 0 1-1.205 1.206 1.207 1.207 0 0 1-1.206-1.206 1.207 1.207 0 0 1 1.206-1.205z" class="cls-2"/>
            <path id="패스_1997" d="M-1236.886-234.168a2.815 2.815 0 0 0 2.812-2.812 2.815 2.815 0 0 0-2.812-2.812 2.816 2.816 0 0 0-2.812 2.812 2.815 2.815 0 0 0 2.812 2.812zm0-4.017a1.207 1.207 0 0 1 1.206 1.205 1.207 1.207 0 0 1-1.206 1.206 1.207 1.207 0 0 1-1.2-1.206 1.207 1.207 0 0 1 1.2-1.205z" class="cls-2"/>
        </g>
    </g>
</svg>
