<svg xmlns="http://www.w3.org/2000/svg" width="144" height="144" viewBox="0 0 144 144">
    <defs>
        <style>
            .cls-3{fill:#5865f5}
        </style>
    </defs>
    <g id="Account_Lockdown_Icon" transform="translate(-260 -660)">
        <path id="bg" fill="rgba(255,0,0,0)" d="M0 0h144v144H0z" transform="translate(260 660)"/>
        <g id="그룹_5697" transform="translate(-943 469.883)">
            <path id="패스_1022" fill="#222" d="M1293 234.233a25.83 25.83 0 1 0-35.753 24 50.5 50.5 0 0 0-40.247 49.5 1.493 1.493 0 0 0 1.488 1.5h53.112v-2.995H1220a47.4 47.4 0 0 1 47.178-46.006 46.921 46.921 0 0 1 23.6 6.358l1.488-2.6a49.758 49.758 0 0 0-15.174-5.763A26.038 26.038 0 0 0 1293 234.233zm-48.683 0a22.854 22.854 0 1 1 22.855 23.005 22.956 22.956 0 0 1-22.855-23.005z" transform="translate(-2 -2.117)"/>
            <g id="그룹_5696">
                <path id="패스_1348" d="M1322.5 284.8v-9.91a12.5 12.5 0 0 0-25 0v9.91H1286v32.7h48v-32.7zm-22-9.91a9.5 9.5 0 0 1 19 0v9.91h-19zm30.5 39.64h-42v-26.76h42z" class="cls-3" transform="translate(1 0.617)"/>
                <path id="패스_1349" d="M1309 302.65V307h3v-4.35a3.5 3.5 0 1 0-3 0z" class="cls-3"/>
            </g>
        </g>
    </g>
</svg>
