<svg xmlns="http://www.w3.org/2000/svg" width="144" height="144" viewBox="0 0 144 144">
    <defs>
        <style>
            .cls-2{fill:#222}.cls-3{fill:#5865f5}
        </style>
    </defs>
    <g id="De-Account_Icon" transform="translate(-260 -660)">
        <path id="bg" fill="rgba(255,0,0,0)" d="M0 0H144V144H0z" transform="translate(260 660)"/>
        <g id="Icon" transform="translate(-332 470)">
            <path id="패스_1355" d="M650.906 241.724h2.194l.4-13.724h-3z" class="cls-2"/>
            <path id="사각형_1245" d="M0 0H2.82V3.476H0z" class="cls-2" transform="translate(650.57 244.524)"/>
            <path id="패스_1356" d="M724 285h-23.5v-10a9.427 9.427 0 0 1 1.335-4.831q.24-.4.516-.777.277-.375.588-.722.312-.348.657-.663a9.555 9.555 0 0 1 1.4-1.063A9.481 9.481 0 0 1 719.5 275v2h3v-2a12.421 12.421 0 0 0-14.5-12.325 12.425 12.425 0 0 0-3 .876 12.565 12.565 0 0 0-5.35 4.449 11.882 11.882 0 0 0-.789 1.358c-.035.068-.067.138-.1.206a13.01 13.01 0 0 0-.593 1.436 12.439 12.439 0 0 0-.668 4v10H686v33h48v-33zm7 30h-42v-27h42z" class="cls-3"/>
            <path id="패스_1357" d="M651 287h-54v-16h101.168a12.558 12.558 0 0 1 .593-1.436c.033-.069.065-.138.1-.206a12.279 12.279 0 0 1 .789-1.358H597v-59h108v54.551a12.425 12.425 0 0 1 3-.876V206H594v84h44.367l-7.724 19H617v3h68v-3h-13.643l-7.724-19H686v-3zm17.119 22h-34.238l7.721-18.993-.017-.007h18.83l-.017.007z" class="cls-2"/>
            <path id="패스_1358" d="M709 302.65V307h3v-4.35a3.5 3.5 0 1 0-3 0z" class="cls-3"/>
        </g>
    </g>
</svg>
