<svg xmlns="http://www.w3.org/2000/svg" width="144" height="144" viewBox="0 0 144 144">
    <g>
        <path fill="#333" d="M368.313-116.331a26.074 26.074 0 0 0-26.043-26.044 26.075 26.075 0 0 0-26.045 26.044 26.085 26.085 0 0 0 16.038 24.043A50.671 50.671 0 0 0 291.681-42.7a1.5 1.5 0 0 0 1.5 1.5h53.551v-3H294.7a47.644 47.644 0 0 1 47.57-46.086 47.562 47.562 0 0 1 23.8 6.369l1.5-2.6a50.382 50.382 0 0 0-15.3-5.773 26.081 26.081 0 0 0 16.043-24.041zm-49.088 0a23.071 23.071 0 0 1 23.045-23.044 23.07 23.07 0 0 1 23.043 23.044 23.07 23.07 0 0 1-23.043 23.045 23.071 23.071 0 0 1-23.045-23.045z" transform="translate(-271 163.786)"/>
        <path fill="#5865f5" d="M381.76-69.795l-2.121 2.121 10.535 10.535h-36.543v3h36.542L379.639-43.6l2.121 2.121 14.156-14.156z" transform="translate(-271 163.786)"/>
    </g>
</svg>
