<svg xmlns="http://www.w3.org/2000/svg" width="64" height="64" viewBox="0 0 64 64">
    <defs>
        <style>
            .cls-2{fill:#fff}
        </style>
    </defs>
    <g id="ic_exec_64" transform="translate(-2126.258 -3641.625)">
        <path id="사각형_575" fill="rgba(0,0,0,0)" d="M0 0H64V64H0z" transform="translate(2126.258 3641.625)"/>
        <g id="그룹_5560">
            <g id="그룹_5558">
                <g id="그룹_5557">
                    <g id="패스_1280">
                        <path id="패스_1381" d="M2173.982 3677.682l-1.414-1.414 2.18-2.182a9.748 9.748 0 0 0 1.222-1.493l.3-.447h4.989v-17.493c-3.711-.006-16.614-.028-18.853-.028a9.141 9.141 0 0 0-6.52 2.693l-5.45 5.475-1.418-1.41 5.452-5.477a11.119 11.119 0 0 1 7.916-3.281c2.64 0 19.875.03 19.875.03h1v21.489h-5.933a11.637 11.637 0 0 1-1.161 1.354z" class="cls-2"/>
                    </g>
                </g>
            </g>
            <g id="그룹_5559">
                <g id="패스_1281">
                    <path id="패스_1382" d="M2152.847 3694.625a4.3 4.3 0 0 1-3.053-1.265l-5.85-5.849a2.677 2.677 0 0 1-.183-.219l-3.407-3.412a11.922 11.922 0 0 1-1.164-1.355h-5.932v-21.489l9-.015 7.472.067-.018 2-7.461-.067-6.991.011v17.493h4.988l.3.446a9.907 9.907 0 0 0 1.226 1.5l3.429 3.429a2.363 2.363 0 0 1 .16.193l5.85 5.856a2.308 2.308 0 0 0 1.645.68h.012a2.316 2.316 0 0 0 1.654-.685 2.344 2.344 0 0 0 0-3.312l1.408-1.42 1.742 1.715a2.35 2.35 0 0 0 1.654.69h.01a2.337 2.337 0 0 0 1.68-3.962l1.426-1.4 1.059 1.059a2.425 2.425 0 0 0 1.726.717h.007a2.451 2.451 0 0 0 1.738-4.181l1.414-1.415.692.691a2.419 2.419 0 0 0 1.727.718h.008a2.43 2.43 0 0 0 1.73-.717 2.459 2.459 0 0 0 0-3.469l-11.9-11.955a9.1 9.1 0 0 0-2.505-1.77l.863-1.805a11.139 11.139 0 0 1 3.058 2.162l11.9 11.956a4.457 4.457 0 0 1 0 6.295 4.412 4.412 0 0 1-3.14 1.3h-.015a1.959 1.959 0 0 0-2.416 2.888 4.468 4.468 0 0 1-3.144 1.3h-.013a4.41 4.41 0 0 1-1.584-.3 4.308 4.308 0 0 1-1.238 2.613 4.357 4.357 0 0 1-3.063 1.27h-.019a1.947 1.947 0 0 0-3.385 1.741 4.3 4.3 0 0 1-3.063 1.271z" class="cls-2"/>
                </g>
                <g id="선_153">
                    <path id="사각형_1259" d="M0 0H2V9.734H0z" class="cls-2" transform="translate(2154.144 3678.781) rotate(-45.004)"/>
                </g>
                <g id="선_154">
                    <path id="사각형_1260" d="M0 0H2V9.737H0z" class="cls-2" transform="translate(2147.635 3681.744) rotate(-45)"/>
                </g>
                <g id="선_155">
                    <path id="사각형_1261" d="M0 0H2V9.734H0z" class="cls-2" transform="translate(2160.082 3674.956) rotate(-44.996)"/>
                </g>
            </g>
            <g id="패스_1282">
                <path id="패스_1383" d="M2150.37 3670.873h-.138a4.382 4.382 0 0 1-3.115-1.3 4.46 4.46 0 0 1 0-6.3l7.347-7.366a11.117 11.117 0 0 1 7.915-3.28v2a9.13 9.13 0 0 0-6.5 2.693l-7.347 7.367a2.457 2.457 0 0 0 0 3.469 2.429 2.429 0 0 0 1.727.717.559.559 0 0 1 .084 0 2.283 2.283 0 0 0 1.613-.648l9.6-9.585 1.414 1.414-9.6 9.591a4.282 4.282 0 0 1-3 1.228z" class="cls-2"/>
            </g>
        </g>
    </g>
</svg>
