<svg xmlns="http://www.w3.org/2000/svg" width="40" height="40" viewBox="0 0 40 40">
    <defs>
        <style>
            .cls-2{fill:#fff}
        </style>
    </defs>
    <g id="ic_02" transform="translate(-5611.086 -1221.526)">
        <g id="그룹_5668">
            <g id="그룹_5666">
                <g id="그룹_5665">
                    <g id="그룹_5664">
                        <path id="패스_1318" d="M5642.114 1255.44l-5.387-5.387 1.414-1.414 3.973 3.973 6.052-6.052 1.414 1.414z" class="cls-2"/>
                    </g>
                </g>
            </g>
            <g id="그룹_5667">
                <path id="패스_1319" d="M5644.707 1228.878h-27.962a1 1 0 0 0-1 1v7.274h-1.545a1 1 0 0 0-1 1v5.084a1 1 0 0 0 1 1h1.542v8.519a1 1 0 0 0 1 1h16.241v-2h-15.241v-7.519h4.084a1 1 0 0 0 1-1v-5.084a1 1 0 0 0-1-1h-4.084v-6.274h25.962v11.94h2v-12.94a1 1 0 0 0-.997-1zm-23.878 13.358h-5.629v-3.084h5.626z" class="cls-2"/>
                <path id="사각형_1240" d="M0 0H2.225V2H0z" class="cls-2" transform="translate(5617.381 1239.694)"/>
            </g>
        </g>
    </g>
</svg>
