<svg xmlns="http://www.w3.org/2000/svg" width="64" height="64" viewBox="0 0 64 64">
    <defs>
        <style>
            .cls-2{fill:#fff}
        </style>
    </defs>
    <g id="ic_refur_64" transform="translate(-2051 -3641.625)">
        <path id="사각형_575-2" fill="rgba(0,0,0,0)" d="M0 0H63.816V63.816H0z" transform="translate(2051 3705.441) rotate(-89.835)"/>
        <g id="그룹_5556">
            <g id="그룹_5555">
                <g id="패스_1277">
                    <path id="패스_1384" d="M2097.655 3698.668a1 1 0 0 1-.706-.295l-15.7-15.793 1.418-1.41 15 15.084 7.889-7.843-14.96-15.043 1.418-1.41 15.665 15.752a1 1 0 0 1 0 1.414l-9.307 9.253a1 1 0 0 1-.717.291z" class="cls-2"/>
                </g>
                <g id="패스_1278">
                    <path id="패스_1385" d="M2065.989 3663.836a1 1 0 0 1-.709-.295l-6.94-6.979a1 1 0 0 1 0-1.415l6.318-6.282a1 1 0 0 1 .7-.291 1 1 0 0 1 .706.295l6.941 6.981a1 1 0 0 1 .236 1.03l-1.614 4.7a1 1 0 0 1-.626.622l-4.7 1.586a1 1 0 0 1-.312.048zm-5.526-7.976l5.8 5.829 3.647-1.229 1.252-3.642-5.8-5.83z" class="cls-2"/>
                </g>
                <g id="선_152">
                    <path id="사각형_1262" d="M0 0H2V12.615H0z" class="cls-2" transform="matrix(0.709, -0.705, 0.705, 0.709, 2069.981, 3661.95)"/>
                </g>
            </g>
            <g id="패스_1279">
                <path id="패스_1386" d="M2068.972 3698.586a11.042 11.042 0 0 1-4.045-.766 1 1 0 0 1-.337-1.642l4.374-4.312-4.239-4.226-4.387 4.322a1 1 0 0 1-1.633-.347 10.858 10.858 0 0 1 2.5-11.727 11.119 11.119 0 0 1 10.081-2.928l15.008-14.793a10.837 10.837 0 0 1 2.948-10.328 11.1 11.1 0 0 1 11.821-2.408 1 1 0 0 1 .337 1.642l-4.374 4.312 4.24 4.226 4.385-4.323a1.012 1.012 0 0 1 .91-.267 1 1 0 0 1 .723.614 10.858 10.858 0 0 1-2.5 11.723 11.011 11.011 0 0 1-9.728 3l-15.288 15.068a10.891 10.891 0 0 1-3.019 9.989 11.1 11.1 0 0 1-7.777 3.171zm-1.771-2.174a9.119 9.119 0 0 0 8.146-2.429 8.879 8.879 0 0 0 2.351-8.619 1 1 0 0 1 .264-.97l16.07-15.839a1 1 0 0 1 .93-.262 9.028 9.028 0 0 0 8.42-2.361 8.86 8.86 0 0 0 2.488-8.048l-3.9 3.847a1 1 0 0 1-1.408 0l-5.657-5.639a1 1 0 0 1 0-1.42l3.886-3.83a9.112 9.112 0 0 0-8.146 2.428 8.843 8.843 0 0 0-2.273 8.911 1 1 0 0 1-.255 1l-15.821 15.593a1.016 1.016 0 0 1-.963.254 9.105 9.105 0 0 0-8.725 2.286 8.866 8.866 0 0 0-2.487 8.053l3.9-3.847a1 1 0 0 1 1.409 0l5.655 5.639a1 1 0 0 1 0 1.42z" class="cls-2"/>
            </g>
        </g>
    </g>
</svg>
