<svg xmlns="http://www.w3.org/2000/svg" width="16" height="16" viewBox="0 0 16 16">
    <g>
        <path fill="#888" d="M-346.079 750.524a2.254 2.254 0 0 1 1.628.7 2.5 2.5 0 0 1 0 3.453l-.335.346-3.975 4.1-3.974-4.1-.335-.346a2.5 2.5 0 0 1 0-3.453 2.251 2.251 0 0 1 1.628-.7 2.254 2.254 0 0 1 1.628.7l.335.346a1 1 0 0 0 .718.3 1 1 0 0 0 .719-.3l.335-.346a2.253 2.253 0 0 1 1.628-.7m0-1a3.258 3.258 0 0 0-2.347 1l-.335.346-.335-.346a3.256 3.256 0 0 0-2.346-1 3.256 3.256 0 0 0-2.347 1 3.5 3.5 0 0 0 0 4.845l.335.346 4.693 4.845 4.693-4.845.335-.346a3.5 3.5 0 0 0 0-4.845 3.256 3.256 0 0 0-2.346-1z" transform="translate(-373 2) translate(729.762 -748.524)"/>
    </g>
</svg>
