<svg xmlns="http://www.w3.org/2000/svg" width="40" height="40" viewBox="0 0 40 40">
    <defs>
        <style>
            .cls-2{fill:#fff}
        </style>
    </defs>
    <g id="ic_03" transform="translate(-5680 -1223)">
        <g id="그룹_5673">
            <g id="그룹_5672">
                <path id="사각형_1242" d="M0 0H2V17.594H0z" class="cls-2" transform="translate(5692.607 1230.981) rotate(-67.358)"/>
            </g>
            <path id="패스_1323" d="M5717.031 1232.99l-16.775-6.564a1 1 0 0 0-.729 0l-16.774 6.564a1 1 0 0 0-.636.932v17.5a1 1 0 0 0 .636.931l16.774 6.564a1 1 0 0 0 .365.068.989.989 0 0 0 .364-.068l16.775-6.564a1 1 0 0 0 .636-.931v-17.5a1 1 0 0 0-.636-.932zm-17.139-4.558l14.03 5.49-14.03 5.489-14.03-5.489zm-15.775 6.955l14.775 5.781v15.356l-14.775-5.781zm16.775 21.137v-15.356l14.775-5.781v15.356z" class="cls-2"/>
        </g>
    </g>
</svg>
