<svg xmlns="http://www.w3.org/2000/svg" width="16" height="16" viewBox="0 0 16 16">
    <g>
        <path fill="#888" d="M-358.307 753.256l-2.934-3.9a.5.5 0 0 0-.4-.2h-6.13a.5.5 0 0 0-.4.2l-2.934 3.9a.5.5 0 0 0 .042.651l6 6.106a.5.5 0 0 0 .357.149.5.5 0 0 0 .356-.149l6-6.106a.5.5 0 0 0 .043-.651zm-6.9 5.184l-4.294-4.37h4.294zm1-4.37h4.294l-4.294 4.37zm.527-1l2.03-2.589 1.95 2.589zm-1.027-.31l-2.038-2.6h4.076zm-3.058-2.279l2.03 2.589h-3.98z" transform="translate(-459 2) translate(832.204 -748.16)"/>
    </g>
</svg>
