<svg xmlns="http://www.w3.org/2000/svg" width="40" height="40" viewBox="0 0 40 40">
    <defs>
        <style>
            .cls-2{fill:#5865f5}
        </style>
    </defs>
    <g id="ic_04" transform="translate(-5754.086 -1221.526)">
        <g id="그룹_5663">
            <g id="그룹_5660">
                <path id="사각형_1237" d="M0 0H7.009V2H0z" class="cls-2" transform="translate(5757.401 1236.729)"/>
            </g>
            <g id="그룹_5661">
                <path id="사각형_1238" d="M0 0H8.565V2H0z" class="cls-2" transform="translate(5754.287 1240.622)"/>
            </g>
            <g id="그룹_5662">
                <path id="사각형_1239" d="M0 0H5.451V2H0z" class="cls-2" transform="translate(5755.844 1244.516)"/>
            </g>
            <path id="패스_1317" d="M5792.363 1241.888l-2.175-2.13-3.037-8.17a1 1 0 0 0-.937-.651h-6.009v-2.553a1 1 0 0 0-1-1h-20.246a1 1 0 0 0-1 1v6.229h2v-5.229h18.246v21.361h-9.038a4.1 4.1 0 0 0-7.956 0h-1.252v-2.115h-2v3.115a1 1 0 0 0 1 1h2.252a4.1 4.1 0 0 0 7.956 0h12.291a4.1 4.1 0 0 0 7.955 0h2.251a1 1 0 0 0 1-1v-9.145a1 1 0 0 0-.301-.712zm-27.175 11.971a2.115 2.115 0 1 1 2.116-2.114 2.116 2.116 0 0 1-2.116 2.114zm22.7-14.543h-3.788v-6.379h1.42zm-2.455 14.543a2.115 2.115 0 1 1 2.115-2.114 2.117 2.117 0 0 1-2.113 2.114zm5.229-3.114h-1.251a4.1 4.1 0 0 0-7.955 0h-1.253v-17.808h1.894v7.379a1 1 0 0 0 1 1h5.821l1.744 1.707z" class="cls-2"/>
        </g>
    </g>
</svg>
