<svg xmlns="http://www.w3.org/2000/svg" width="40" height="40" viewBox="0 0 40 40">
    <defs>
        <style>
            .cls-2{fill:#5865f5}
        </style>
    </defs>
    <g id="ic_01" transform="translate(-5541.336 -1221.725)">
        <g id="그룹_5659">
            <g id="그룹_5657">
                <path id="패스_1314" d="M5560.838 1255.494a14.551 14.551 0 1 1 14.551-14.551h-2a12.551 12.551 0 1 0-12.551 12.551z" class="cls-2"/>
            </g>
            <path id="패스_1315" d="M5577.853 1249.8h-1.153l1.111-3.636-1.913-.584-1.289 4.22h-1.959l-1.636-4.284h-1.869l-1.636 4.284h-1.959l-1.29-4.22-1.912.584 1.111 3.636h-1.159v2h1.766l1.289 4.219 1.891.064 1.636-4.283h2.387l1.636 4.283 1.891-.064 1.289-4.219h1.766zm-11.434 2.848l-.259-.848h.583zm3.228-2.848l.43-1.125.43 1.125zm4.089 2.848l-.324-.848h.588z" class="cls-2"/>
            <g id="그룹_5658">
                <path id="패스_1316" d="M5568.229 1241.943h-8.392v-10.855h2v8.855h6.392z" class="cls-2"/>
            </g>
        </g>
    </g>
</svg>
