<svg xmlns="http://www.w3.org/2000/svg" width="16" height="16" viewBox="0 0 16 16">
    <defs>
        <style>
            .cls-2{fill:#888}
        </style>
    </defs>
    <g id="ic_mileage" transform="translate(-392.669 2)">
        <g id="그룹_5534" transform="translate(749.17 -717.5)">
            <g id="그룹_5532">
                <path id="패스_1257" d="M-348.5 718.5a5.006 5.006 0 0 1 5 5 5.006 5.006 0 0 1-5 5 5.006 5.006 0 0 1-5-5 5.006 5.006 0 0 1 5-5m0-1a6 6 0 0 0-6 6 6 6 0 0 0 6 6 6 6 0 0 0 6-6 6 6 0 0 0-6-6z" class="cls-2"/>
            </g>
            <g id="그룹_5533">
                <path id="패스_1258" d="M-350.765 721.354h.824l1.441 1.979 1.442-1.979h.824v4.431h-.906V722.9l-1.36 1.866-1.36-1.866v2.883h-.905z" class="cls-2"/>
            </g>
        </g>
    </g>
</svg>
