<svg xmlns="http://www.w3.org/2000/svg" width="64" height="64" viewBox="0 0 64 64">
    <defs>
        <style>
            .cls-2{fill:#222}.cls-4{fill:#5865f5}
        </style>
    </defs>
    <g id="ic_d" transform="translate(-1044 -1008.732)">
        <path id="사각형_575" fill="rgba(241,241,241,0)" d="M0 0H64V64H0z" transform="translate(1044 1008.732)"/>
        <g id="그룹_5214" transform="translate(337.42 -3.538)">
            <g id="그룹_5211">
                <g id="그룹_5208">
                    <path id="패스_978" d="M741.45 1069.268a6.039 6.039 0 0 1-1.446-.176l-11.123-2.756-10.864 2.751a1 1 0 0 1-1.215-.725l-3.192-12.6a1 1 0 0 1 .111-.757.992.992 0 0 1 .614-.458l15.228-3.856a1.071 1.071 0 0 1 .175-.027 3.909 3.909 0 0 1 1.769.023l12.583 3.118a4.006 4.006 0 0 1 2.975 3.165l4.816-3.307a4 4 0 0 1 4.529 6.595l-11.33 7.781c-.083.067-.221.157-.36.247l-.207.143a4.04 4.04 0 0 1-1.282.581l-.31.077a5.985 5.985 0 0 1-1.471.181zm-12.572-4.963a.972.972 0 0 1 .24.029l11.366 2.816a3.917 3.917 0 0 0 1.942 0l.33-.083a1.959 1.959 0 0 0 .626-.287l.208-.143c.134-.087.224-.145.309-.21l11.378-7.817a2 2 0 0 0 .517-2.781 2 2 0 0 0-2.781-.515l-6.672 4.581a1 1 0 0 1-1.453-1.287 2.027 2.027 0 0 0 .181-.438 2 2 0 0 0-1.46-2.423l-12.583-3.118a1.98 1.98 0 0 0-.969.015 1.159 1.159 0 0 1-.154.026l-14.108 3.571 2.7 10.664 10.138-2.567a.967.967 0 0 1 .245-.033z" class="cls-2"/>
                </g>
                <g id="그룹_5210">
                    <g id="그룹_5209">
                        <path id="패스_979" fill="#333" d="M743.133 1061.686a4.01 4.01 0 0 1-.968-.119l-12.582-3.118.48-1.941 12.583 3.118a2 2 0 1 0 .963-3.882l-12.583-3.118.481-1.941 12.583 3.118a4 4 0 0 1 .017 7.761 3.942 3.942 0 0 1-.974.122z"/>
                    </g>
                </g>
            </g>
            <g id="그룹_5212" transform="translate(2 -1)">
                <path id="패스_980" d="M722.181 1042.47h-2v-22.2a1 1 0 0 1 1-1h36.6v2h-35.6z" class="cls-2"/>
            </g>
            <g id="그룹_5213" transform="translate(2 -1)">
                <path id="패스_981" d="M762.58 1024.026h-35.6a1 1 0 0 0-1 1v7.328a1 1 0 0 0 1 1 2.117 2.117 0 1 1 0 4.235 1 1 0 0 0-1 1v8.638a1 1 0 0 0 1 1h35.6a1 1 0 0 0 1-1v-22.2a1 1 0 0 0-1-1.001zm-1 22.2h-23.7v-1h-2v1h-7.9v-6.761a4.118 4.118 0 0 0 0-7.989v-5.451h7.9v1h2v-1h23.7z" class="cls-4"/>
                <path id="사각형_952" d="M0 0H2V3.64H0z" class="cls-4" transform="translate(735.88 1037.947)"/>
                <path id="사각형_953" d="M0 0H2V3.64H0z" class="cls-4" transform="translate(735.88 1030.667)"/>
            </g>
        </g>
    </g>
</svg>
