<svg xmlns="http://www.w3.org/2000/svg" width="40" height="40" viewBox="0 0 40 40">
    <defs>
        <style>
            .cls-2{fill:#5865f5}
        </style>
    </defs>
    <g id="ic_05" transform="translate(-5827.086 -1221.526)">
        <g id="그룹_5671">
            <path id="패스_1320" d="M5862.92 1242.78h-6.22a1 1 0 0 0-1 1v.109a5.577 5.577 0 0 0-3.283-1.109h-8.117a4.494 4.494 0 0 0-3.8 2.924l-3.153-2.18a3.37 3.37 0 0 0-2.612-.516 3.765 3.765 0 0 0-2.416 1.642 3.822 3.822 0 0 0 .838 5.1l6.743 5.6a5.194 5.194 0 0 0 2.845.923h12.955v.129a1 1 0 0 0 1 1h6.219a1 1 0 0 0 1-1v-12.622a1 1 0 0 0-.999-1zm-20.155 11.492a3.159 3.159 0 0 1-1.664-.515l-6.742-5.6a1.85 1.85 0 0 1-.364-2.422 1.759 1.759 0 0 1 1.127-.764 1.412 1.412 0 0 1 1.082.2l5.719 3.952a5.237 5.237 0 0 0 2.988.932h4.535v-2h-4.535a3.248 3.248 0 0 1-1.851-.576l-.869-.6c.322-1.055 1.185-2.082 2.123-2.1h8.1a4.153 4.153 0 0 1 3.283 1.934v7.558zm19.155 1.129h-4.22v-10.621h4.219z" class="cls-2"/>
            <g id="그룹_5669">
                <path id="패스_1321" d="M5836.694 1243.954h-2v-16.778a1 1 0 0 1 1-1h21.392a1 1 0 0 1 1 1v16.4h-2v-15.4h-19.392z" class="cls-2"/>
            </g>
            <g id="그룹_5670">
                <path id="패스_1322" d="M5849.413 1235.026h-5.66a1 1 0 0 1-1-1v-6.846a1 1 0 0 1 1-1h5.66a1 1 0 0 1 1 1v6.846a1 1 0 0 1-1 1zm-4.66-2h3.66v-4.846h-3.66z" class="cls-2"/>
            </g>
        </g>
    </g>
</svg>
