<svg xmlns="http://www.w3.org/2000/svg" width="64" height="64" viewBox="0 0 64 64">
    <defs>
        <style>
            .cls-2{fill:#fff}
        </style>
    </defs>
    <g id="ic_b2b_64" transform="translate(-2270.258 -3641.625)">
        <path id="사각형_575-3" fill="rgba(0,0,0,0)" d="M0 0H64V64H0z" transform="translate(2270.258 3641.625)"/>
        <g id="그룹_5618">
            <g id="그룹_5617">
                <g id="패스_1295">
                    <path id="패스_1387" d="M2322.516 3664.354h-30.288l15.141-15.143zm-25.46-2h20.63l-10.317-10.315z" class="cls-2"/>
                </g>
                <g id="패스_1296">
                    <path id="패스_1388" d="M2320.26 3684.354h-27a1 1 0 0 1-.981-.8l-4-20a1 1 0 0 1 .981-1.2h35a1 1 0 0 1 .98 1.2l-4 20a1 1 0 0 1-.98.8zm-26.181-2h25.361l3.6-18h-32.561z" class="cls-2"/>
                </g>
                <g id="패스_1297">
                    <path id="패스_1389" d="M2317.26 3690.354h-22.79a1 1 0 0 1-.981-.8l-6.651-33.2h-6.581v-2h7.4a1 1 0 0 1 .981.8l6.651 33.2h21.971z" class="cls-2"/>
                </g>
            </g>
            <g id="타원_856">
                <path id="패스_1390" d="M2296 3698.354a5 5 0 1 1 5-5 5.006 5.006 0 0 1-5 5zm0-8a3 3 0 1 0 3 3 3 3 0 0 0-3-3z" class="cls-2"/>
            </g>
            <g id="타원_857">
                <path id="패스_1391" d="M2317 3698.354a5 5 0 1 1 5-5 5.006 5.006 0 0 1-5 5zm0-8a3 3 0 1 0 3 3 3 3 0 0 0-3-3z" class="cls-2"/>
            </g>
        </g>
    </g>
</svg>
