<svg xmlns="http://www.w3.org/2000/svg" width="112" height="20" viewBox="0 0 112 20">
    <path fill="#fff" d="M773.794 389.626a15.389 15.389 0 0 1-10.333-3.531 8.683 8.683 0 0 1-2.814-6.483 8.835 8.835 0 0 1 2.814-6.478c2.337-2.151 6.463-3.508 10.333-3.508 4.31 0 7.74 1.1 10.36 3.518a8.7 8.7 0 0 1 2.775 6.468 9.02 9.02 0 0 1-2.775 6.483c-2.436 2.315-6.284 3.531-10.36 3.531v-2.637a7.753 7.753 0 0 0 5.549-2.163 7.051 7.051 0 0 0 2.032-5.215 7.28 7.28 0 0 0-2.032-5.227 8.232 8.232 0 0 0-11.107 0 7.763 7.763 0 0 0 0 10.442 7.858 7.858 0 0 0 5.558 2.163zm-29.645-20a16.86 16.86 0 0 0-6.721 1.374c-1.94.879-3.534 2.29-3.534 4.646a4.828 4.828 0 0 0 1.286 3.3 7.12 7.12 0 0 0 3.851 1.948c1.053.237 3.317.589 5.58.845 2.235.236 4.445.463 5.346.69.715.188 1.9.439 1.9 1.8a2.01 2.01 0 0 1-1.483 1.861 10.922 10.922 0 0 1-4.458.793 19.066 19.066 0 0 1-5.3-.921 6.462 6.462 0 0 1-3.065-2.093 3.61 3.61 0 0 1-.623-1.97h-2.483v6.99h2.739v-.943a.391.391 0 0 1 .591-.329 21.057 21.057 0 0 0 4.014 1.305 16.856 16.856 0 0 0 4.145.519 17.611 17.611 0 0 0 5.568-.79 9.738 9.738 0 0 0 3.313-1.658 4.589 4.589 0 0 0 1.764-3.676 5.118 5.118 0 0 0-1.43-3.624 6.136 6.136 0 0 0-1.767-1.224 13.03 13.03 0 0 0-2.179-.766 58.934 58.934 0 0 0-6.123-.949 42.616 42.616 0 0 1-5.48-.754 1.336 1.336 0 0 1-1.03-1.242 1.758 1.758 0 0 1 .94-1.462 10.681 10.681 0 0 1 5.033-1 14.379 14.379 0 0 1 5.835 1.145 7.276 7.276 0 0 1 1.394.846 4.237 4.237 0 0 1 1.364 2.319h2.215v-6.087h-2.466v.705c0 .232-.231.524-.68.288a18.493 18.493 0 0 0-8.056-1.883zm45.48 1.127v2.216h1.913c1.386 0 1.486.785 1.486 1.459v10.4c0 .626.037 1.472-.85 1.472H789.8v2.221h10.119V386.3h-2.467c-.98 0-1.035-.447-1.051-1.429v-8.9l13.873 12.547h3.526l-.184-14.172c.024-1.028.079-1.383 1.129-1.383h2.213v-2.209h-10.3v2.209h2.268c1.029 0 1.215.416 1.222 1.383l.126 7.414-12.038-11.006zm36.953 15.547v2.221h12.01v-2.227h-2.273l-.595-.036a.672.672 0 0 1-.469-.414l-.048-.488v-3.506l.088-.333c.163-.193 6.376-7.387 6.66-7.7a1.857 1.857 0 0 1 1.729-.85h2.209v-2.209H836v2.209h1.483a.434.434 0 0 1 .373.693l-4.205 4.981-.12-.012-4.1-4.969c-.3-.37-.053-.693.266-.693h1.458v-2.209h-12.076v2.209h2.151a2.56 2.56 0 0 1 1.9.994c.281.307 6.428 7.378 6.572 7.579s.154.224.154.31v3.506l-.039.488a.765.765 0 0 1-.476.414l-.6.042z" transform="translate(-733.894 -369.626)"/>
</svg>
