<svg xmlns="http://www.w3.org/2000/svg" width="48" height="48" viewBox="0 0 48 48">
    <defs>
        <style>
            .cls-2{fill:#444}
        </style>
    </defs>
    <g id="ic_car" transform="translate(1043.957 324.14)">
        <g id="그룹_6336" transform="translate(172.791 -58.153)">
            <path id="패스_1989" d="M-1175.215-246.555v-1.453h-3.571l-1.416 1.237-2.123-4.824a3.609 3.609 0 0 0-3.621-2.392h-14.072a3.6 3.6 0 0 0-3.61 2.365l-2.134 4.851-1.416-1.237h-3.571v1.453h3.026l1.109.97-1.442 1.214a4.4 4.4 0 0 0-1.567 3.37v5.524a2.687 2.687 0 0 0 1.322 2.311v2.348a1.832 1.832 0 0 0 1.83 1.831h2.943a1.833 1.833 0 0 0 1.831-1.831v-1.97h17.553v1.97a1.832 1.832 0 0 0 1.83 1.831h2.943a1.833 1.833 0 0 0 1.831-1.831v-2.423a2.687 2.687 0 0 0 1.2-2.236V-241a4.4 4.4 0 0 0-1.567-3.37l-1.441-1.214 1.109-.97zm-27.071-4.508a2.175 2.175 0 0 1 2.268-1.47h14.072a2.189 2.189 0 0 1 2.28 1.5l2.315 5.263-1.664 1.476h-19.933l-1.665-1.476zm-.865 20.245a.377.377 0 0 1-.377.377h-2.943a.377.377 0 0 1-.376-.377v-1.97h3.7zm24.157 0a.377.377 0 0 1-.377.377h-2.943a.377.377 0 0 1-.376-.377v-1.97h3.696zm.15-12.441a2.947 2.947 0 0 1 1.05 2.258v5.524a1.237 1.237 0 0 1-1.236 1.235h-27.9a1.236 1.236 0 0 1-1.235-1.235V-241a2.946 2.946 0 0 1 1.049-2.258l1.613-1.359.425.372 1.582 1.4h21.036l1.581-1.4.426-.372z" class="cls-2"/>
            <path id="패스_1990" d="M-1198.165-238.52a.727.727 0 0 0-.177-.8l-2.207-2.084a.728.728 0 0 0-1.028.029.728.728 0 0 0 .03 1.028l.878.829h-3.2a2.318 2.318 0 0 1-2.068-1.585.728.728 0 0 0-.915-.464.726.726 0 0 0-.467.915 3.763 3.763 0 0 0 3.45 2.588h5.028a.728.728 0 0 0 .676-.456z" class="cls-2"/>
            <path id="패스_1991" d="M-1182.095-239.515h-3.2l.878-.829a.728.728 0 0 0 .03-1.028.728.728 0 0 0-1.028-.029l-2.207 2.084a.728.728 0 0 0-.176.8.726.726 0 0 0 .675.459h5.028a3.763 3.763 0 0 0 3.45-2.588.725.725 0 0 0-.464-.912.728.728 0 0 0-.917.46 2.322 2.322 0 0 1-2.069 1.583z" class="cls-2"/>
        </g>
    </g>
</svg>
