<svg xmlns="http://www.w3.org/2000/svg" width="64" height="64" viewBox="0 0 64 64">
    <g>
        <path fill="rgba(241,241,241,0)" d="M0 0H64V64H0z" transform="translate(-1044 -1008.732) translate(1044 1008.732)"/>
        <g>
            <path fill="#333" d="M608 287.25h-43.428c-1.843 0-3.286 1.108-3.286 2.524v28.952c0 1.416 1.443 2.524 3.286 2.524H608c1.842 0 3.285-1.108 3.285-2.524v-28.952c.001-1.416-1.442-2.524-3.285-2.524zm1.285 31.476c0 .13-.456.524-1.285.524h-43.428c-.83 0-1.286-.394-1.286-.524v-28.952c0-.13.456-.524 1.286-.524H608c.829 0 1.285.394 1.285.524z" transform="translate(-1044 -1008.732) translate(489.715 736.482)"/>
            <path fill="#5865f5" d="M593.651 303.729l-11.428-6.74a1 1 0 0 0-1.508.861v12.8a1 1 0 0 0 1.469.884l11.428-6.06a1 1 0 0 0 .039-1.745zm-10.936 5.259V299.6l8.382 4.943z" transform="translate(-1044 -1008.732) translate(489.715 736.482)"/>
        </g>
    </g>
</svg>
