<svg xmlns="http://www.w3.org/2000/svg" width="18" height="18" viewBox="0 0 18 18">
    <defs>
        <style>
            .cls-1,.cls-4{fill:none}.cls-1{stroke:#bbb}.cls-2{fill:#bbb}.cls-3{stroke:none}
        </style>
    </defs>
    <g id="ic_qr" transform="translate(-6084.499 139)">
        <g id="사각형_234" class="cls-1">
            <path d="M0 0H7.714V7.714H0z" class="cls-3" transform="translate(6084.499 -139)"/>
            <path d="M0.5 0.5H7.214V7.214H0.5z" class="cls-4" transform="translate(6084.499 -139)"/>
        </g>
        <g id="사각형_236" class="cls-1">
            <path d="M0 0H7.714V7.714H0z" class="cls-3" transform="translate(6084.499 -128.714)"/>
            <path d="M0.5 0.5H7.214V7.214H0.5z" class="cls-4" transform="translate(6084.499 -128.714)"/>
        </g>
        <g id="사각형_235" class="cls-1">
            <path d="M0 0H7.714V7.714H0z" class="cls-3" transform="translate(6094.785 -139)"/>
            <path d="M0.5 0.5H7.214V7.214H0.5z" class="cls-4" transform="translate(6094.785 -139)"/>
        </g>
        <path id="사각형_238" d="M0 0H2.571V2.571H0z" class="cls-2" transform="translate(6094.785 -128.714)"/>
        <path id="사각형_245" d="M0 0H2.571V2.571H0z" class="cls-2" transform="translate(6097.356 -126.143)"/>
        <path id="사각형_244" d="M0 0H2.571V2.571H0z" class="cls-2" transform="translate(6094.785 -123.571)"/>
        <path id="사각형_242" d="M0 0H2.571V2.571H0z" class="cls-2" transform="translate(6099.928 -128.714)"/>
        <path id="사각형_243" d="M0 0H2.571V2.571H0z" class="cls-2" transform="translate(6099.928 -123.571)"/>
    </g>
</svg>
