<svg xmlns="http://www.w3.org/2000/svg" width="56" height="56" viewBox="0 0 56 56">
    <defs>
        <style>
            .cls-2,.cls-4{fill:none;stroke:#002;stroke-width:2px}.cls-4{stroke-linejoin:round;stroke:#5865f5}
        </style>
    </defs>
    <g id="ic_pop" transform="translate(-90 -39)">
        <path id="사각형_628" fill="#fff" d="M0 0H56V56H0z" opacity="0.004" transform="translate(90 39)"/>
        <g id="그룹_3895" transform="translate(-207.25 -433)">
            <g id="그룹_3890" transform="translate(299.25 474)">
                <path id="사각형_630" d="M0 0H44V35H0z" class="cls-2" transform="translate(1 11)"/>
                <path id="패스_295" d="M308 493v-8.708A10.149 10.149 0 0 1 318 474a10.149 10.149 0 0 1 10 10.292V493" class="cls-2" transform="translate(-295 -474)"/>
            </g>
            <g id="그룹_3891" transform="translate(325.25 500)">
                <circle id="타원_145" cx="13" cy="13" r="13" fill="#fff" stroke="#002" stroke-linejoin="round" stroke-width="2px"/>
                <path id="선_105" d="M0 0L11.556 0" class="cls-4" transform="translate(8.915 8.914) rotate(45)"/>
                <path id="선_106" d="M0 11.556L0 0" class="cls-4" transform="translate(17.086 8.914) rotate(45)"/>
            </g>
        </g>
    </g>
</svg>
