<svg xmlns="http://www.w3.org/2000/svg" width="91" height="83" viewBox="0 0 91 83">
    <g>
        <g>
            <path fill="#fff" d="M505.381 211.838v-20.483a28.562 28.562 0 0 0 15.518-4.563l2.481-1.608 2.481 1.608a28.568 28.568 0 0 0 15.52 4.563v20.483c0 9.657-18 16.546-18 16.546s-18-6.884-18-16.546z" transform="translate(0.5 0.5) translate(-477.902 -165.715)"/>
            <path fill="#222" d="M0 11.7V0h3.75v8.043H18V11.7z" transform="translate(0.5 0.5) translate(34.375 41.936) rotate(-45)"/>
            <path fill="#606060" stroke="rgba(0,0,0,0)" stroke-miterlimit="10" d="M42.542 90l-7.8-7.775 7.8-7.773v5.627a35.406 35.406 0 0 0 7.435-69.783l4.077-4.069a40.448 40.448 0 0 1-11.512 78.9V90zM0 45.326A40.537 40.537 0 0 1 39.456 4.873V0l7.794 7.773-7.794 7.772V9.924A35.4 35.4 0 0 0 32.019 79.7l-4.078 4.073A40.539 40.539 0 0 1 0 45.326z" transform="translate(0.5 0.5) translate(90) rotate(90)"/>
        </g>
    </g>
</svg>
