<svg xmlns="http://www.w3.org/2000/svg" width="64" height="64" viewBox="0 0 64 64">
    <defs>
        <style>
            .cls-3{fill:#5865f5}
        </style>
    </defs>
    <g id="IPin_A_Icon" transform="translate(-729 -517)">
        <g id="IPin_A_Icon-2" transform="translate(335 144)">
            <path id="패스_762" fill="#222" d="M394 377v46h24.833l-3.066 8H408v2h36v-2h-7.767l-3.066-8H458v-46zm24.119 53.855l2.956-7.71h9.85l2.956 7.71zM456 421h-60v-10h60zm-60-12v-30h60v30z"/>
            <g id="그룹_4900">
                <path id="패스_763" d="M431.895 391v-3.8c0-2.258-2.2-4.1-4.895-4.1s-4.895 1.837-4.895 4.1v3.8H419v14h16v-14zm-8-3.8c0-1.271 1.393-2.305 3.105-2.305s3.105 1.034 3.105 2.305v3.8h-6.21zM433 403h-12v-10h12z" class="cls-3"/>
                <path id="패스_764" d="M428.414 395.586a2 2 0 0 0-2.828 2.828 1.966 1.966 0 0 0 .414.309V401h2v-2.277a1.966 1.966 0 0 0 .414-.309 2 2 0 0 0 0-2.828z" class="cls-3"/>
            </g>
        </g>
    </g>
</svg>
