<svg xmlns="http://www.w3.org/2000/svg" width="24" height="24" viewBox="0 0 24 24">
  <defs>
    <style>
      .cls-1 {
        fill: red;
        opacity: 0;
      }

      .cls-2 {
        fill: #fff;
      }
    </style>
  </defs>
  <g id="ic_mypage" transform="translate(-951.037 119)">
    <rect id="사각형_1330" data-name="사각형 1330" class="cls-1" width="24" height="24" transform="translate(951.037 -119)"/>
    <g id="그룹_5800" data-name="그룹 5800">
      <path id="패스_1547" data-name="패스 1547" class="cls-2" d="M963.037-106a5.506,5.506,0,0,0,5.5-5.5,5.506,5.506,0,0,0-5.5-5.5,5.507,5.507,0,0,0-5.5,5.5A5.507,5.507,0,0,0,963.037-106Zm0-9a3.5,3.5,0,0,1,3.5,3.5,3.5,3.5,0,0,1-3.5,3.5,3.5,3.5,0,0,1-3.5-3.5A3.5,3.5,0,0,1,963.037-115Z"/>
      <path id="패스_1548" data-name="패스 1548" class="cls-2" d="M963.052-105.3a12.042,12.042,0,0,0-11.249,7.63l1.859.74a10.051,10.051,0,0,1,9.39-6.37,10.064,10.064,0,0,1,9.367,6.314l1.853-.75A12.052,12.052,0,0,0,963.052-105.3Z"/>
    </g>
  </g>
</svg>
