<svg xmlns="http://www.w3.org/2000/svg" width="56" height="56" viewBox="0 0 56 56">
  <defs>
    <style>
      .cls-1 {
        fill: rgba(255,255,255,0);
      }

      .cls-2 {
        fill: none;
      }

      .cls-3 {
        fill: #fff;
      }
    </style>
  </defs>
  <g id="ic_gnb_mypage" data-name="ic gnb mypage" transform="translate(-2523.943 -3563.35)">
    <rect id="bg-3" class="cls-1" width="56" height="56" transform="translate(2523.943 3563.35)"/>
    <g id="그룹_3137" data-name="그룹 3137">
      <g id="타원_22" data-name="타원 22">
        <g id="그룹_5761" data-name="그룹 5761">
          <circle id="타원_872" data-name="타원 872" class="cls-2" cx="10.364" cy="10.364" r="10.364" transform="translate(2541.579 3572.35)"/>
        </g>
        <g id="그룹_5762" data-name="그룹 5762">
          <path id="패스_1509" data-name="패스 1509" class="cls-3" d="M2551.943,3593.078a10.363,10.363,0,1,1,10.365-10.364A10.376,10.376,0,0,1,2551.943,3593.078Zm0-19.477a9.113,9.113,0,1,0,9.115,9.113A9.123,9.123,0,0,0,2551.943,3573.6Z"/>
        </g>
      </g>
      <g id="패스_66" data-name="패스 66">
        <path id="패스_1510" data-name="패스 1510" class="cls-3" d="M2570.373,3610.606a22.661,22.661,0,0,0-3.156-5.095,19.378,19.378,0,0,0-29.86-.8,22.562,22.562,0,0,0-3.843,5.892l-1.141-.511a23.734,23.734,0,0,1,4.05-6.21,20.624,20.624,0,0,1,31.769.844,23.848,23.848,0,0,1,3.322,5.366Z"/>
      </g>
    </g>
  </g>
</svg>
