<svg xmlns="http://www.w3.org/2000/svg" width="56" height="56" viewBox="0 0 56 56">
    <defs>
        <style>
            .cls-2{fill:none}
        </style>
    </defs>
    <g id="ic_delivery" transform="translate(-2619.943 -3563.35)">
        <g id="ic_mypage">
            <path id="bg-2" fill="rgba(255,255,255,0)" d="M0 0H56V56H0z" transform="translate(2619.943 3563.35)"/>
            <g id="그룹_5760">
                <path id="패스_1506" d="M2624.068 3595.383v8.492h5.533a6.017 6.017 0 0 1 10.767-3.034v-21.365h-8.158z" class="cls-2"/>
                <path id="패스_1507" d="M2659.894 3598.476a6.03 6.03 0 0 1 5.991 5.4h4.183v-31.149h-28.45v31.149h12.282a6.032 6.032 0 0 1 5.994-5.4zm-18.226-6.076h28.351v1.25h-28.351z" class="cls-2"/>
                <path id="패스_1508" fill="#fff" d="M2670.693 3571.476h-29.7a.625.625 0 0 0-.625.625v6.125h-8.54a.628.628 0 0 0-.557.339l-8.384 16.382a.634.634 0 0 0-.069.285v9.268a.626.626 0 0 0 .625.625h6.158a6.024 6.024 0 0 0 11.984 0h12.315a6.025 6.025 0 0 0 11.984 0h4.808a.625.625 0 0 0 .625-.625v-32.4a.625.625 0 0 0-.624-.624zm-35.1 37.8a4.774 4.774 0 1 1 4.775-4.775 4.78 4.78 0 0 1-4.775 4.774zm4.775-8.434a6.017 6.017 0 0 0-10.767 3.034h-5.533v-8.492l8.142-15.907h8.158zm19.526 8.434a4.774 4.774 0 1 1 4.774-4.775 4.781 4.781 0 0 1-4.774 4.774zm10.174-5.4h-4.183a6.025 6.025 0 0 0-11.984 0h-12.283v-10.226h28.45zm0-11.475h-28.45v-19.674h28.45z"/>
            </g>
        </g>
    </g>
</svg>
