<svg xmlns="http://www.w3.org/2000/svg" width="220" height="60" viewBox="0 0 220 60">
    <g>
        <path d="M805.145 405.34c-7.236 0-13.944-2.211-18.453-6.306a15.506 15.506 0 0 1-5.026-11.576 15.778 15.778 0 0 1 5.026-11.568c4.173-3.842 11.541-6.263 18.453-6.263 7.7 0 13.821 1.97 18.5 6.282a15.538 15.538 0 0 1 4.956 11.55 16.106 16.106 0 0 1-4.956 11.576c-4.35 4.133-11.222 6.306-18.5 6.306v-4.709a13.844 13.844 0 0 0 9.909-3.862 12.592 12.592 0 0 0 3.628-9.312 13 13 0 0 0-3.628-9.334 14.7 14.7 0 0 0-19.834 0 13.863 13.863 0 0 0 0 18.646 14.032 14.032 0 0 0 9.924 3.862zm-52.938-35.71a30.107 30.107 0 0 0-12 2.444c-3.463 1.57-6.312 4.089-6.312 8.3a8.621 8.621 0 0 0 2.3 5.9 12.715 12.715 0 0 0 6.876 3.478c1.881.423 5.922 1.052 9.964 1.51 3.99.421 7.938.826 9.546 1.232 1.276.336 3.4.784 3.4 3.207a3.589 3.589 0 0 1-2.648 3.323 19.5 19.5 0 0 1-7.962 1.416 34.045 34.045 0 0 1-9.47-1.644 11.54 11.54 0 0 1-5.472-3.738 6.446 6.446 0 0 1-1.112-3.518h-4.433v12.483h4.891v-1.684a.7.7 0 0 1 1.056-.588 37.6 37.6 0 0 0 7.168 2.331 30.1 30.1 0 0 0 7.4.928 31.446 31.446 0 0 0 9.942-1.411 17.388 17.388 0 0 0 5.916-2.961 8.2 8.2 0 0 0 3.151-6.565 9.139 9.139 0 0 0-2.553-6.472 10.954 10.954 0 0 0-3.156-2.185 23.266 23.266 0 0 0-3.891-1.367 105.258 105.258 0 0 0-10.935-1.694c-2.853-.315-7.824-.726-9.787-1.348a2.386 2.386 0 0 1-1.839-2.217 3.14 3.14 0 0 1 1.678-2.61c1.741-1.106 5.316-1.787 8.987-1.787a25.676 25.676 0 0 1 10.42 2.045 12.993 12.993 0 0 1 2.489 1.51 7.567 7.567 0 0 1 2.436 4.141h3.956v-10.876h-4.4v1.259c0 .415-.413.935-1.215.515a33.023 33.023 0 0 0-14.391-3.356zm81.214 2.013v3.957h3.416c2.475 0 2.653 1.4 2.653 2.6v18.57c0 1.118.066 2.628-1.517 2.628h-4.238v3.967H851.8V399.4h-4.4c-1.75 0-1.849-.8-1.876-2.551v-15.89l24.776 22.405h6.294l-.329-25.307c.043-1.836.142-2.47 2.016-2.47h3.951v-3.944h-18.39v3.944h4.05c1.838 0 2.169.743 2.182 2.47l.225 13.24-21.5-19.654zm65.988 27.757v3.967h21.446v-3.977H916.8l-1.062-.065a1.2 1.2 0 0 1-.837-.739l-.086-.872v-6.261l.157-.595c.291-.344 11.386-13.192 11.893-13.749a3.316 3.316 0 0 1 3.088-1.518h3.945v-3.944h-17.675v3.944h2.648a.774.774 0 0 1 .665 1.237l-7.51 8.9-.214-.022-7.314-8.873c-.529-.661-.094-1.237.475-1.237h2.6v-3.944H886.01v3.944h3.841a4.572 4.572 0 0 1 3.384 1.774c.5.549 11.478 13.175 11.736 13.535.275.345.275.4.275.554v6.261l-.069.872a1.367 1.367 0 0 1-.849.739l-1.077.075z" transform="translate(-850 -292) translate(126.106 -65.6)"/>
    </g>
</svg>
