<svg xmlns="http://www.w3.org/2000/svg" width="40" height="40" viewBox="0 0 40 40">
    <g fill="#222">
        <path d="M-27.951 730.829a5.1 5.1 0 0 1 3.687 1.581 5.608 5.608 0 0 1 0 7.742l-.671.692-8.38 8.652-8.38-8.652-.67-.692a5.606 5.606 0 0 1 0-7.742 5.1 5.1 0 0 1 3.687-1.581 5.1 5.1 0 0 1 3.687 1.581l.671.692a1.4 1.4 0 0 0 1.005.426 1.4 1.4 0 0 0 1.006-.426l.67-.692a5.1 5.1 0 0 1 3.688-1.581m0-1.4a6.511 6.511 0 0 0-4.693 2.007l-.671.692-.67-.692a6.511 6.511 0 0 0-4.693-2.007 6.513 6.513 0 0 0-4.693 2.007 7.01 7.01 0 0 0 0 9.69l.671.692 9.385 9.691 9.386-9.691.671-.692a7.012 7.012 0 0 0 0-9.69 6.513 6.513 0 0 0-4.693-2.007z" transform="translate(53.315 -720.191)"/>
    </g>
</svg>
