<svg xmlns="http://www.w3.org/2000/svg" width="56" height="56" viewBox="0 0 56 56">
    <g transform="translate(0 -936)">
        <circle cx="28" cy="28" r="28" fill="#00c300" transform="translate(0 936)"/>
        <path fill="#fff" d="M10.944 22.069a.385.385 0 0 1-.311-.121.849.849 0 0 1-.059-.643v-.026c.03-.174.165-.991.165-.991a2.208 2.208 0 0 0-.037-1.047c-.129-.319-.626-.487-1.02-.571a12.416 12.416 0 0 1-6.93-3.17A8.443 8.443 0 0 1 0 9.4C0 4.216 5.2 0 11.581 0s11.58 4.216 11.58 9.4a8.408 8.408 0 0 1-2.483 5.783 37.046 37.046 0 0 1-9.1 6.724 1.751 1.751 0 0 1-.634.162zM15.733 6.4a.583.583 0 0 0-.582.582V11.4a.583.583 0 0 0 .582.583h2.209a.583.583 0 1 0 0-1.165h-1.625V9.773h1.625a.583.583 0 1 0 0-1.166h-1.625V7.564h1.625a.583.583 0 1 0 0-1.166zm-4.678 2.265l2.262 3.081a.585.585 0 0 0 .466.233.593.593 0 0 0 .185-.03.582.582 0 0 0 .4-.554V6.98a.583.583 0 0 0-1.165 0v2.734l-2.265-3.083a.586.586 0 0 0-.465-.233.593.593 0 0 0-.185.03.581.581 0 0 0-.4.553V11.4a.583.583 0 0 0 1.166 0V8.665zM8.468 6.4a.583.583 0 0 0-.583.582V11.4a.583.583 0 1 0 1.166 0V6.98a.583.583 0 0 0-.583-.58zm-3.911 0a.583.583 0 0 0-.583.582V11.4a.584.584 0 0 0 .583.583h2.21a.583.583 0 0 0 0-1.165H5.14V6.98a.583.583 0 0 0-.583-.58z" transform="translate(16.625 952.965)"/>
    </g>
</svg>
