<svg xmlns="http://www.w3.org/2000/svg" width="40" height="40" viewBox="0 0 40 40">
    <defs>
        <style>
            .cls-2{fill:none}
        </style>
    </defs>
    <g id="ic_gift" transform="translate(169.363 -860.096)">
        <g id="그룹_5219">
            <path id="패스_999" d="M-154.58 879.223l-.875-1.094 3.078-2.462h-6.587v14.2h8.9v-14.2h-.071z" class="cls-2"/>
            <path id="패스_1000" d="M-143.263 878.129l-.875 1.094-4.445-3.556h-.08v14.2h8.9v-14.2h-6.577z" class="cls-2"/>
            <path id="패스_1001" fill="#222" d="M-143.082 874.267a3.969 3.969 0 0 0 1.038-2.667 4 4 0 0 0-4-4 3.993 3.993 0 0 0-3.319 1.769 4 4 0 0 0-3.32-1.769 4 4 0 0 0-4 4 3.969 3.969 0 0 0 1.038 2.667h-4.719v17h22v-17zm-9.6-5.267a2.6 2.6 0 0 1 2.6 2.6v2.6h-2.6a2.6 2.6 0 0 1-2.6-2.6 2.6 2.6 0 0 1 2.599-2.6zm2.62 20.867h-8.9v-14.2h6.587l-3.078 2.462.875 1.094 4.445-3.556h.072zm1.42-18.267a2.6 2.6 0 0 1 2.6-2.6 2.6 2.6 0 0 1 2.6 2.6 2.6 2.6 0 0 1-2.6 2.6h-2.6zm8.88 18.267h-8.9v-14.2h.08l4.445 3.556.875-1.094-3.078-2.462h6.578z"/>
        </g>
    </g>
</svg>
