<svg xmlns="http://www.w3.org/2000/svg" width="100" height="64" viewBox="0 0 100 64">
    <defs>
        <style>
            .cls-3{fill:none}
        </style>
    </defs>
    <g id="Login_Icon" transform="translate(18 -517.166)">
        <g id="IPin_A_Icon" transform="translate(0 521)">
            <path id="패스_762" fill="#222" d="M394 377v46h24.833l-3.066 8H408v2h36v-2h-7.767l-3.066-8H458v-46zm24.119 53.855l2.956-7.71h9.85l2.956 7.71zM456 421h-60v-10h60zm-60-12v-30h60v30z" transform="translate(-394 -376.835)"/>
            <g id="그룹_6009" transform="translate(-1310.704 -1013.82)">
                <path id="패스_1703" d="M1339.491 1029.13a4.428 4.428 0 1 1 6.426 0 6.509 6.509 0 0 1 3.3 3.478 8 8 0 1 0-13.035 0 6.508 6.508 0 0 1 3.309-3.478z" class="cls-3"/>
                <path id="패스_1704" d="M1343.226 1030.537h-1.045a4.476 4.476 0 0 0-4.4 3.739 7.953 7.953 0 0 0 9.851 0 4.476 4.476 0 0 0-4.406-3.739z" class="cls-3"/>
                <circle id="타원_915" cx="2.429" cy="2.429" r="2.429" class="cls-3" transform="translate(1340.275 1023.671)"/>
            </g>
            <path id="패스_1719" fill="#5865f5" d="M1319.636 1090.338a6 6 0 1 0-7.786 0 9.166 9.166 0 0 0-6.046 8.6h2a7.168 7.168 0 0 1 7.16-7.16h1.557a7.168 7.168 0 0 1 7.161 7.16h2a9.167 9.167 0 0 0-6.046-8.6zm-3.893-8.557a4 4 0 1 1-4 4 4 4 0 0 1 4-4z" transform="translate(-1283.743 -1070.616)"/>
        </g>
    </g>
</svg>
