<svg xmlns="http://www.w3.org/2000/svg" width="100" height="64" viewBox="0 0 100 64">
    <defs>
        <style>
            .cls-2{fill:#222}.cls-3{fill:#5865f5}
        </style>
    </defs>
    <g id="Cert_Icon" transform="translate(-18 -507.165)">
        <g id="그룹_6016" transform="translate(-777.306 -502.721)">
            <g id="그룹_6015">
                <path id="패스_1708" d="M871.858 1040.791a62.335 62.335 0 0 0-.4-.089 1.027 1.027 0 0 0-.4.073 7.894 7.894 0 0 1-5.76 0 1.047 1.047 0 0 0-.795.016 1.042 1.042 0 0 0 .037 1.927 9.975 9.975 0 0 0 7.278 0 1.029 1.029 0 0 0 .575-.552 1.042 1.042 0 0 0-.537-1.375z" class="cls-2"/>
                <path id="패스_1709" d="M883.347 1055.221l-2.8-1.542a9.124 9.124 0 0 0 5.011-3.334 1.044 1.044 0 0 0-.785-1.616c-1.378-.113-2.425-1.316-3.113-3.574a18.124 18.124 0 0 1-.684-3.991v-7.58a12.423 12.423 0 0 0-2.836-7.893l-.045-.05a12.4 12.4 0 0 0-9.54-4.479h-.755a12.435 12.435 0 0 0-12.421 12.422v7.483c0 .074-.309 7.374-3.8 7.662a1.043 1.043 0 0 0-.786 1.615 9.057 9.057 0 0 0 5.018 3.336l-2.794 1.541a4.613 4.613 0 0 0-2.387 4.041v10.854h2.087v-10.854a2.53 2.53 0 0 1 1.308-2.215l8.3-4.575a12.627 12.627 0 0 0 2.128.857v1.869a3.28 3.28 0 0 0 1.3 2.608l-1.026 10.752a1.047 1.047 0 0 0 .329.862l2.416 2.248a1.044 1.044 0 0 0 1.421 0l2.417-2.248a1.055 1.055 0 0 0 .33-.863l-1.026-10.751a3.279 3.279 0 0 0 1.3-2.608v-1.869a12.636 12.636 0 0 0 2.128-.857l8.3 4.577a2.523 2.523 0 0 1 1.308 2.213v10.854h2.087v-10.854a4.613 4.613 0 0 0-2.39-4.041zm-1.606-4.171a6.256 6.256 0 0 1-5.043.5l-.664-.366a12.835 12.835 0 0 0 3.821-4.871 6.877 6.877 0 0 0 2.962 3.964 6.879 6.879 0 0 1-1.076.773zm-2.857-9.956l.006.12a10.713 10.713 0 0 1-21.425-.118v-5.232a46.532 46.532 0 0 0 6.492-.827v.567a1.043 1.043 0 0 0 2.086 0v-1.034c3.638-.932 8.49-2.8 11.281-6.449a10.265 10.265 0 0 1 1.572 5.462v7.426l-.014.07zm-21.419-7.324v-.186a10.347 10.347 0 0 1 10.334-10.335h.762a10.371 10.371 0 0 1 7.427 3.173c-4.049 5.963-15.021 7.128-18.523 7.348zm2.861 17.417l-.63.348a8.078 8.078 0 0 1-1.011.227l-.024.006a6.171 6.171 0 0 1-5.128-1.487 6.886 6.886 0 0 0 2.967-3.977 12.813 12.813 0 0 0 3.826 4.883zm8.316 5.2h-.923a1.188 1.188 0 0 1-1.187-1.186v-1.419a11.172 11.172 0 0 0 3.3 0v1.419a1.187 1.187 0 0 1-1.19 1.183zm-.858 2.087h.793l.932 9.771-1.329 1.237-1.329-1.237z" class="cls-2"/>
                <path id="패스_1710" d="M871.337 1036.648a1.044 1.044 0 0 0 1.043-1.043v-1.485a1.043 1.043 0 1 0-2.086 0v1.485a1.044 1.044 0 0 0 1.043 1.043z" class="cls-2"/>
                <path id="패스_1711" d="M880.394 1061.2h-4.125a1.044 1.044 0 0 0 0 2.087h4.125a1.044 1.044 0 0 0 0-2.087z" class="cls-2"/>
                <path id="패스_1712" d="M838.027 1055.462l-7.314-4.035a12.876 12.876 0 0 0 4.948-10.09v-12.548a7.4 7.4 0 0 0-7.386-7.387H811.1a1.044 1.044 0 0 0-1.043 1.043v18.892a12.876 12.876 0 0 0 4.948 10.09l-7.314 4.035a4.613 4.613 0 0 0-2.386 4.04v10.614h2.087V1059.5a2.528 2.528 0 0 1 1.307-2.215l8.3-4.575a12.632 12.632 0 0 0 2.141.861v1.385a3.277 3.277 0 0 0 1.3 2.607l-1.025 10.752a1.048 1.048 0 0 0 .329.863l2.416 2.248a1.045 1.045 0 0 0 1.422 0l2.418-2.246a1.052 1.052 0 0 0 .33-.864l-1.026-10.75a3.279 3.279 0 0 0 1.3-2.608v-1.392a12.616 12.616 0 0 0 2.117-.854l8.3 4.575a2.528 2.528 0 0 1 1.307 2.215v10.614h2.087V1059.5a4.611 4.611 0 0 0-2.388-4.038zm-25.246-21.569l.323-.006.449-.01.41-.012.482-.018.459-.019.569-.03.448-.025c.285-.018.579-.039.878-.062l.23-.016c.366-.029.741-.064 1.121-.1.115-.011.231-.025.347-.037.206-.022.411-.042.62-.067a.952.952 0 0 0-.133.113c-.013.012-.027.021-.039.033a1 1 0 0 0-.2.29c-.011.024-.02.047-.029.072a1.022 1.022 0 0 0-.074.363v1.486a1.044 1.044 0 0 0 2.087 0v-1.486a1.028 1.028 0 0 0-.075-.372c-.014-.035-.034-.065-.051-.1a1.039 1.039 0 0 0-.144-.214 1 1 0 0 0-.3-.232.976.976 0 0 0-.095-.05c-.014-.006-.025-.016-.039-.021.108-.015.217-.034.325-.05.268-.039.534-.08.8-.124.2-.033.391-.067.587-.1.257-.046.512-.1.767-.148.2-.041.4-.083.6-.127.248-.056.492-.116.736-.177.195-.05.389-.1.581-.153.239-.067.471-.138.7-.211.185-.058.37-.116.55-.178.23-.08.448-.167.668-.254.167-.066.336-.13.5-.2.221-.1.426-.2.633-.308.141-.072.289-.139.423-.215.218-.124.414-.259.612-.393.1-.069.214-.133.31-.206a6.02 6.02 0 0 0 .767-.677 5.94 5.94 0 0 0 3.993 3.015v8.474a10.715 10.715 0 0 1-21.43 0v-7.441c.187 0 .402 0 .634-.007zm17.925-6.811a1.043 1.043 0 0 0-2.06.128c-.313 3.59-10.856 4.575-16.5 4.6v-8.321h16.13a5.306 5.306 0 0 1 5.3 5.3v1.9c-2.219-.721-2.864-3.578-2.87-3.607zm-7.373 29.062h-.924a1.188 1.188 0 0 1-1.186-1.186v-.937a11.447 11.447 0 0 0 3.3 0v.939a1.188 1.188 0 0 1-1.19 1.184zm-.858 2.086h.792l.933 9.77-1.328 1.236-1.33-1.236z" class="cls-2"/>
                <path id="패스_1713" d="M826.028 1036.889a1.045 1.045 0 0 0 1.044-1.043v-1.486a1.044 1.044 0 1 0-2.087 0v1.486a1.044 1.044 0 0 0 1.043 1.043z" class="cls-2"/>
                <path id="패스_1714" d="M819.232 1042.959a9.972 9.972 0 0 0 7.277 0 1.042 1.042 0 0 0 .039-1.927 1.022 1.022 0 0 0-.4-.088 1 1 0 0 0-.4.073 7.917 7.917 0 0 1-5.763 0 1.049 1.049 0 0 0-1.35.591 1.044 1.044 0 0 0 .593 1.352z" class="cls-2"/>
                <path id="패스_1715" d="M834.618 1061.439h-4.124a1.044 1.044 0 1 0 0 2.087h4.124a1.044 1.044 0 0 0 0-2.087z" class="cls-2"/>
            </g>
            <path id="패스_1716" d="M850.549 1016.912v-1.026a5 5 0 0 0-10 0v1.026h-2v12h14v-12zm-8-1.026a3 3 0 0 1 6 0v1.026h-6zm8 11.026h-10v-8h10z" class="cls-3"/>
            <path id="패스_1717" d="M847.038 1022.04a1.5 1.5 0 0 0-3 0 1.472 1.472 0 0 0 .5 1.093v2.292h2v-2.292a1.469 1.469 0 0 0 .5-1.093z" class="cls-3"/>
        </g>
    </g>
</svg>
