<svg xmlns="http://www.w3.org/2000/svg" width="56" height="56" viewBox="0 0 56 56">
    <g transform="translate(0 -936)">
        <circle cx="28" cy="28" r="28" fill="#00c900" transform="translate(0 936)"/>
        <g>
            <g>
                <path fill="#fff" d="M389.224 476.639a9.27 9.27 0 0 0-2.272.282v-1.748a.619.619 0 0 0-.013-.119 3.467 3.467 0 0 0-6.929 0c-.008.04-.012 6.566-.012 6.566v4.336a9.226 9.226 0 1 0 9.225-9.316zm0 17.036a7.808 7.808 0 0 1-7.809-7.809V475.24a2.06 2.06 0 1 1 4.119 0v10.533a3.775 3.775 0 0 0 3.693 3.791 3.7 3.7 0 1 0-2.272-6.614v-1.583a5.04 5.04 0 1 1-2.769 4.5v-10.695a.71.71 0 0 0-1.418 0v10.693c0 .162.008.323.02.482a6.452 6.452 0 1 0 4.166-6.528v-1.426a7.809 7.809 0 1 1 2.272 15.281zm-2.272-7.809a2.272 2.272 0 1 1 2.272 2.273 2.272 2.272 0 0 1-2.272-2.274z" transform="translate(18.375 952.625) translate(-379.998 -471.712)"/>
            </g>
        </g>
    </g>
</svg>
