<svg xmlns="http://www.w3.org/2000/svg" width="50" height="66.774" viewBox="0 0 50 66.774">
    <path fill="#222" d="M-1308-207.387c13.807 0 25 10.5 25 23.461.008 5.606-.879 9.491-4.273 14.586S-1308-140.613-1308-140.613s-17.335-23.633-20.727-28.727-4.281-8.98-4.273-14.586c0-12.957 11.194-23.461 25-23.461z" transform="translate(1332.999 207.387)"/>
    <path fill="#fff" d="M-1308.029-201.139h.06a18.4 18.4 0 0 1 18.72 18.724 18.385 18.385 0 0 1-18.666 18.776h-.168a18.385 18.385 0 0 1-18.666-18.776 18.4 18.4 0 0 1 18.72-18.724z" transform="translate(1332.999 207.387)"/>
    <path d="M-1312.323-183.323a4.119 4.119 0 0 1-2.768-.945 2.328 2.328 0 0 1-.754-1.737 2.364 2.364 0 0 1 .754-1.735 4.32 4.32 0 0 1 2.768-.94 3.9 3.9 0 0 1 2.775.943 2.333 2.333 0 0 1 .743 1.732 2.417 2.417 0 0 1-.743 1.737 4.06 4.06 0 0 1-2.775.945v-.706a2.075 2.075 0 0 0 1.486-.579 1.891 1.891 0 0 0 .544-1.4 1.948 1.948 0 0 0-.544-1.4 2.2 2.2 0 0 0-2.975 0 2.079 2.079 0 0 0 0 2.8 2.107 2.107 0 0 0 1.489.579zm-7.941-5.357a4.525 4.525 0 0 0-1.8.368 1.371 1.371 0 0 0-.947 1.245 1.3 1.3 0 0 0 .345.884 1.907 1.907 0 0 0 1.031.521c.282.064.889.158 1.495.227s1.19.124 1.432.185c.191.05.509.117.509.482a.538.538 0 0 1-.4.5 2.918 2.918 0 0 1-1.194.213 5.112 5.112 0 0 1-1.419-.247 1.727 1.727 0 0 1-.821-.561.963.963 0 0 1-.167-.527h-.665v1.872h.733v-.253a.1.1 0 0 1 .107-.1.107.107 0 0 1 .052.014 5.557 5.557 0 0 0 1.075.35 4.52 4.52 0 0 0 1.11.139 4.718 4.718 0 0 0 1.492-.212 2.607 2.607 0 0 0 .887-.444 1.23 1.23 0 0 0 .473-.984 1.371 1.371 0 0 0-.384-.971 1.65 1.65 0 0 0-.473-.328 3.427 3.427 0 0 0-.584-.205 15.356 15.356 0 0 0-1.64-.254 11.536 11.536 0 0 1-1.468-.2.358.358 0 0 1-.275-.333.471.471 0 0 1 .251-.392 2.877 2.877 0 0 1 1.349-.268 3.86 3.86 0 0 1 1.562.307 1.905 1.905 0 0 1 .374.227 1.134 1.134 0 0 1 .365.621h.594v-1.631h-.661v.189c0 .062-.062.141-.182.077a4.967 4.967 0 0 0-2.158-.5zm12.182.3v.594h.513c.371 0 .4.21.4.391v2.785c0 .168.01.4-.228.4h-.637v.594h2.711v-.594h-.661c-.263 0-.278-.12-.282-.383v-2.384l3.716 3.361h.945l-.05-3.8c.007-.276.022-.371.3-.371h.593v-.592h-2.759v.592h.607c.276 0 .326.112.327.371l.034 1.985-3.224-2.948zm9.9 4.165v.594h3.217v-.6h-.608l-.16-.01a.179.179 0 0 1-.125-.111l-.013-.13v-.939l.023-.09c.044-.051 1.708-1.978 1.784-2.062a.5.5 0 0 1 .463-.228h.592v-.592h-2.65v.592h.4a.116.116 0 0 1 .123.109.112.112 0 0 1-.023.077l-1.126 1.334h-.032l-1.1-1.331c-.081-.1-.015-.186.071-.186h.39v-.592h-3.234v.592h.576a.687.687 0 0 1 .509.266c.075.083 1.722 1.977 1.76 2.031s.041.06.041.083v.939l-.01.13a.2.2 0 0 1-.128.111l-.16.012z" transform="translate(1332.999 207.387)"/>
    <text font-family="SST-Bold, SST" font-size="7.5px" font-weight="700" transform="translate(25 32.798)">
        <tspan x="-11.475" y="0">STORE</tspan>
    </text>
</svg>
